<svg width="64" height="64" viewBox="0 0 64 64" fill="none" xmlns="http://www.w3.org/2000/svg">
<rect width="64" height="64" rx="32" fill="#25D366"/>
<path d="M32.0755 14.5806C22.1952 14.5806 14.1545 22.3252 14.151 31.8431C14.1486 34.8869 14.9755 37.8575 16.5432 40.4739L14 49.4193L23.5028 47.0189C26.1462 48.4016 29.0854 49.1229 32.0685 49.1208H32.0755C41.9557 49.1208 49.9965 41.375 50 31.8571C50.0023 27.2468 48.1396 22.907 44.7544 19.645C41.3705 16.3817 36.8705 14.5817 32.0755 14.5806ZM32.0755 46.2048H32.0697C29.3964 46.2048 26.7742 45.5127 24.4865 44.2051L23.9406 43.8939L18.3037 45.3176L19.8088 40.0221L19.4546 39.4798C17.9669 37.2108 17.1749 34.5564 17.1761 31.8431C17.1796 23.9313 23.864 17.4966 32.0813 17.4966C36.0599 17.4977 39.8004 18.9923 42.6142 21.7039C45.428 24.4155 46.976 28.0213 46.9737 31.8559C46.9702 39.7678 40.287 46.2048 32.0743 46.2048H32.0755ZM40.2475 35.4571C39.7992 35.2422 37.5974 34.1982 37.1863 34.0531C36.7764 33.9102 36.4779 33.8359 36.1795 34.2679C35.8822 34.6999 35.0228 35.6719 34.7627 35.9588C34.5003 36.2468 34.239 36.2816 33.7907 36.0668C33.3425 35.8508 31.899 35.3955 30.1895 33.9253C28.8575 32.7826 27.9587 31.3705 27.6974 30.9373C27.4361 30.5065 27.6695 30.2731 27.8937 30.0582C28.0946 29.8666 28.3419 29.5554 28.5649 29.3034C28.7879 29.0514 28.8622 28.8714 29.0132 28.5834C29.1618 28.2966 29.0875 28.0434 28.9748 27.8286C28.8622 27.6114 27.968 25.4886 27.5929 24.6257C27.2306 23.785 26.8613 23.8976 26.5861 23.8837C26.3248 23.8721 26.0275 23.8686 25.7267 23.8686C25.4306 23.8686 24.944 23.9766 24.5329 24.4086C24.123 24.8406 22.9652 25.8834 22.9652 28.0062C22.9652 30.1302 24.5701 32.1811 24.7942 32.4691C25.0183 32.7559 27.9529 37.1142 32.4459 38.9839C33.5143 39.4264 34.3481 39.6923 34.9996 39.8921C36.0726 40.2207 37.0493 40.1731 37.8204 40.0628C38.6797 39.9385 40.4705 39.0199 40.8421 38.0131C41.216 37.0062 41.216 36.1422 41.1045 35.9622C40.9954 35.7822 40.6957 35.6742 40.2475 35.4571Z" fill="white"/>
</svg>
