<svg width="25" height="24" viewBox="0 0 25 24" fill="none" xmlns="http://www.w3.org/2000/svg">
<path fill-rule="evenodd" clip-rule="evenodd" d="M20.292 5.41483C21.1521 5.64589 21.8325 6.32626 22.0635 7.18633C22.4872 8.75244 22.5 12.0002 22.5 12.0002C22.5 12.0002 22.5 15.2608 22.0764 16.8141C21.8453 17.6741 21.165 18.3545 20.3049 18.5856C18.7516 19.0092 12.5 19.0092 12.5 19.0092C12.5 19.0092 6.24839 19.0092 4.69512 18.5856C3.83504 18.3545 3.15469 17.6741 2.92362 16.8141C2.5 15.248 2.5 12.0002 2.5 12.0002C2.5 12.0002 2.5 8.75244 2.91078 7.19917C3.14185 6.33909 3.82221 5.65873 4.68229 5.42767C6.23556 5.00404 12.4872 4.99121 12.4872 4.99121C12.4872 4.99121 18.7388 4.99121 20.292 5.41483ZM15.6836 12.0002L10.4974 15.004V8.99635L15.6836 12.0002Z" fill="#030826"/>
</svg>
