<svg width="211" height="56" viewBox="0 0 211 56" fill="none" xmlns="http://www.w3.org/2000/svg">
<path fill-rule="evenodd" clip-rule="evenodd" d="M10.7387 13.6164C12.0437 13.4297 13.3924 13.3318 14.7726 13.3318C14.8703 13.3318 14.9678 13.3323 15.0651 13.3333C19.5426 7.32846 26.7006 3.4399 34.7669 3.4399C48.3311 3.4399 59.327 14.4358 59.327 28C59.327 41.5642 48.3311 52.5601 34.7669 52.5601C27.0883 52.5601 20.2328 49.0363 15.7291 43.5177C15.4121 43.5282 15.0932 43.5334 14.7726 43.5334C13.6 43.5334 12.4501 43.4628 11.3305 43.3271C16.3319 50.959 24.9606 56 34.7668 56C50.2307 56 62.7668 43.464 62.7668 28C62.7668 12.536 50.2307 0 34.7668 0C24.562 0 15.6323 5.45914 10.7387 13.6164ZM20.539 42.9441C24.2409 46.4697 29.2512 48.634 34.7671 48.634C46.1629 48.634 55.4009 39.3958 55.4009 28C55.4009 16.6042 46.1629 7.36616 34.7671 7.36616C28.8831 7.36616 23.5744 9.82891 19.8155 13.7798C28.8513 15.4178 35.5458 21.3569 35.5458 28.4326C35.5458 35.3182 29.2064 41.1273 20.539 42.9441Z" fill="#0B1F8F"/>
<path d="M13.2939 22.6941C14.32 21.1584 15.6141 20.3903 17.1751 20.3903V20.3468H26.3087V37.2583H23.0856V23.7376H17.5658V23.7813C16.8298 23.7813 16.2108 24.1072 15.709 24.759C15.2069 25.4117 14.9702 26.2048 14.9702 27.1611L14.9727 27.172V37.2583H11.7151V27.172H11.7486C11.7486 26.2157 11.4978 25.4117 10.996 24.759C10.4939 24.1072 9.87511 23.7813 9.13911 23.7813V23.7376H3.51917V37.2583H0.296143V20.3468H9.42973V20.3903C10.9907 20.3903 12.2845 21.1584 13.3107 22.6941H13.2939Z" fill="#A8A8AA"/>
<path d="M112.152 33.7573H93.8898C92.1244 33.7573 90.6934 32.3713 90.6934 30.6617V22.9756C90.6934 21.266 92.1244 19.88 93.8898 19.88H112.152V24.0432H109.286C109.286 23.1183 108.82 22.6556 107.89 22.6556H95.2728C94.3265 22.6556 93.5593 23.3984 93.5593 24.3151V25.431H107.89V28.2063H93.5593V29.3224C93.5593 30.2389 94.3265 30.9819 95.2728 30.9819H107.89C108.845 30.9819 109.31 30.5195 109.286 29.5941H112.152V33.7573Z" fill="#A8A8AA"/>
<path d="M132.723 29.5941V24.0791C132.723 23.6995 132.582 23.3732 132.301 23.1003C132.019 22.8279 131.682 22.6911 131.29 22.6911H116.997V30.9819H131.29C131.682 30.9819 132.019 30.8459 132.301 30.573C132.582 30.3006 132.723 29.9742 132.723 29.5941ZM135.589 29.5941C135.589 30.7569 135.173 31.7416 134.34 32.5477C133.507 33.3545 132.49 33.7573 131.29 33.7573H114.168V19.9157H131.29C132.49 19.9157 133.507 20.319 134.34 21.1251C135.173 21.9321 135.589 22.9166 135.589 24.0791V29.5941Z" fill="#A8A8AA"/>
<path d="M140.435 33.7571H137.606V19.9155H140.435V33.7571Z" fill="#A8A8AA"/>
<path d="M163.873 33.7573H144.397C143.323 33.7573 142.452 32.9137 142.452 31.8732V19.9157H145.281V29.0976C145.281 30.1383 146.152 30.9819 147.227 30.9819H159.574C160.53 30.9819 161.007 30.5195 161.007 29.5941H163.873V33.7573Z" fill="#A8A8AA"/>
<path d="M187.348 33.7573H169.44C167.479 33.7573 165.89 32.2177 165.89 30.319V23.3185C165.89 21.4196 167.479 19.88 169.44 19.88H187.348V24.0432H184.483C184.483 23.1183 184.016 22.6556 183.086 22.6556H170.916C169.723 22.6556 168.756 23.5919 168.756 24.7471V25.431H183.086V28.2063H168.756V28.8905C168.756 30.0454 169.723 30.9819 170.916 30.9819H183.086C184.042 30.9819 184.507 30.5195 184.483 29.5941H187.348V33.7573Z" fill="#A8A8AA"/>
<path d="M210.198 33.7573H206.046L199.762 27.9929L193.516 33.7573H189.364L196.897 26.8188L189.364 19.88H193.516L199.762 25.6447L206.046 19.88H210.198L202.628 26.8188L210.198 33.7573Z" fill="#A8A8AA"/>
<path d="M78.0125 21.8024C78.8798 20.5456 79.9734 19.9168 81.2927 19.9168V19.8811H89.0123V33.7234H86.2881V22.6565H81.6229V22.6922C81.0009 22.6922 80.4779 22.9589 80.0537 23.4926C79.6293 24.0265 79.4292 24.6758 79.4292 25.4585L79.4315 25.4676V33.7234H76.6782V25.4676H76.7064C76.7064 24.6849 76.4945 24.0265 76.0701 23.4926C75.6461 22.9589 75.1229 22.6922 74.5009 22.6922V22.6565H69.751V33.7234H67.0269V19.8811H74.7465V19.9168C76.0658 19.9168 77.1593 20.5456 78.0266 21.8024H78.0125Z" fill="#A8A8AA"/>
</svg>
