<?xml version="1.0" standalone="no"?>
<!DOCTYPE svg PUBLIC "-//W3C//DTD SVG 20010904//EN"
 "http://www.w3.org/TR/2001/REC-SVG-20010904/DTD/svg10.dtd">
<svg version="1.0" xmlns="http://www.w3.org/2000/svg"
 width="1008.000000pt" height="1008.000000pt" viewBox="0 0 1008.000000 1008.000000"
 preserveAspectRatio="xMidYMid meet">
<metadata>
Created by potrace 1.14, written by Peter Selinger 2001-2017
</metadata>
<g transform="translate(0.000000,1008.000000) scale(0.100000,-0.100000)"
fill="#000000" stroke="none">
<path d="M5318 9515 c-2 -2 -48 -6 -103 -9 -55 -3 -113 -9 -130 -12 -16 -3
-52 -7 -80 -9 -27 -2 -50 -4 -50 -5 0 -3 -28 -7 -83 -14 -30 -3 -73 -10 -95
-15 -23 -5 -60 -12 -82 -16 -47 -8 -53 -9 -80 -18 -11 -3 -36 -8 -55 -11 -19
-3 -69 -15 -110 -26 -41 -12 -86 -23 -99 -26 -13 -3 -32 -9 -43 -15 -10 -5
-18 -8 -18 -5 0 3 -38 -8 -84 -24 -47 -15 -87 -26 -90 -22 -3 3 -6 0 -6 -6 0
-7 -3 -11 -7 -10 -5 0 -15 -1 -23 -4 -8 -3 -37 -14 -65 -23 -139 -49 -553
-236 -579 -262 -4 -5 -11 -8 -14 -8 -6 0 -143 -80 -237 -138 -69 -43 -256
-171 -266 -183 -6 -8 -15 -14 -20 -14 -8 0 -43 -27 -75 -58 -8 -7 -14 -10 -14
-6 0 4 -6 1 -12 -7 -7 -9 -38 -35 -68 -60 -193 -155 -442 -400 -585 -573 -22
-27 -45 -54 -50 -60 -6 -6 -33 -40 -60 -76 -28 -36 -52 -67 -56 -70 -3 -3 -21
-27 -40 -55 -18 -27 -36 -52 -40 -55 -6 -6 -127 -191 -159 -244 -21 -35 -22
-38 -4 -33 18 5 82 13 184 23 95 9 220 15 353 18 76 2 139 5 141 7 84 109 123
157 135 170 9 9 36 40 61 70 95 114 310 322 481 464 51 43 187 143 254 188 39
26 75 51 81 56 5 4 21 14 35 21 13 7 26 16 29 19 3 4 16 12 30 19 27 13 62 34
70 42 17 17 426 220 443 220 3 0 26 10 53 22 27 12 54 23 59 24 6 2 48 17 95
34 47 18 90 33 95 34 6 1 24 6 40 13 46 17 200 59 300 81 85 19 114 26 175 37
14 3 36 7 50 10 25 4 67 10 149 20 23 3 55 7 70 9 122 20 599 28 766 13 134
-12 270 -29 325 -41 13 -3 42 -8 65 -11 22 -4 68 -13 103 -20 34 -8 76 -17 94
-20 17 -3 36 -9 42 -12 6 -4 17 -8 26 -9 25 -3 62 -12 135 -34 39 -12 75 -23
80 -24 6 -2 17 -6 25 -9 8 -3 42 -15 75 -26 84 -29 181 -65 238 -90 26 -11 49
-21 52 -21 8 -2 209 -100 225 -110 8 -5 31 -17 50 -27 19 -9 64 -34 99 -55 34
-21 65 -38 68 -38 2 0 24 -13 48 -30 24 -16 48 -30 53 -30 6 0 12 -4 14 -8 2
-5 32 -28 68 -52 36 -24 67 -47 68 -52 2 -4 8 -8 13 -8 11 0 113 -78 242 -183
101 -83 363 -340 414 -405 12 -16 33 -40 46 -53 12 -14 41 -48 62 -75 22 -27
45 -54 50 -60 6 -6 17 -22 25 -34 8 -13 31 -44 50 -69 19 -25 53 -73 75 -106
22 -33 43 -61 48 -63 4 -2 7 -8 7 -13 0 -5 16 -33 35 -63 43 -68 166 -286 168
-300 1 -6 4 -13 7 -16 16 -15 150 -323 150 -343 0 -7 4 -17 9 -23 8 -9 40 -98
42 -119 1 -5 6 -19 11 -30 10 -18 64 -196 74 -240 2 -11 6 -29 8 -40 2 -11 12
-49 21 -84 9 -35 18 -76 20 -90 2 -14 6 -37 9 -51 17 -86 32 -188 41 -275 3
-27 8 -72 12 -100 3 -27 6 -87 7 -132 0 -46 5 -83 9 -83 4 0 3 -8 -2 -19 -6
-10 -8 -21 -4 -25 11 -11 1 -375 -11 -395 -4 -6 -2 -11 4 -11 6 0 8 -5 4 -12
-4 -6 -9 -30 -10 -52 -2 -23 -5 -57 -7 -76 -9 -70 -19 -143 -22 -159 -1 -9 -6
-36 -10 -61 -4 -25 -9 -54 -11 -65 -2 -11 -7 -33 -9 -50 -3 -16 -8 -38 -11
-47 -3 -9 -6 -25 -8 -35 -2 -10 -9 -38 -16 -62 -6 -25 -13 -54 -15 -65 -1 -12
-5 -28 -8 -36 -9 -25 -27 -86 -32 -106 -15 -77 -129 -372 -197 -514 -28 -58
-61 -127 -74 -155 -14 -27 -33 -64 -43 -81 -10 -17 -30 -51 -43 -75 -13 -24
-32 -57 -43 -74 -58 -92 -150 -231 -157 -240 -5 -5 -22 -28 -38 -50 -16 -22
-33 -44 -38 -50 -4 -5 -28 -37 -54 -70 -111 -143 -386 -435 -409 -435 -5 0 -9
-7 -9 -15 0 -8 -4 -15 -8 -15 -5 0 -22 -12 -40 -27 -99 -88 -136 -118 -222
-184 -52 -40 -156 -112 -230 -161 -74 -48 -139 -91 -145 -95 -5 -5 -39 -23
-75 -42 -36 -19 -78 -43 -95 -55 -16 -12 -31 -20 -32 -19 -2 1 -60 -25 -130
-58 -71 -34 -137 -65 -148 -69 -11 -4 -51 -20 -90 -35 -38 -15 -79 -31 -90
-35 -36 -15 -145 -51 -155 -52 -3 0 -12 -4 -21 -9 -9 -4 -27 -10 -40 -13 -13
-3 -83 -21 -156 -41 -72 -19 -144 -37 -160 -40 -15 -2 -55 -10 -88 -15 -33 -6
-71 -13 -85 -16 -25 -5 -36 -7 -120 -18 -205 -26 -268 -30 -525 -30 -225 0
-342 5 -445 19 -19 3 -57 7 -85 11 -27 3 -59 7 -70 9 -11 2 -36 7 -55 10 -19
3 -69 13 -110 21 -41 9 -86 18 -100 20 -14 3 -33 7 -42 10 -9 3 -26 7 -37 9
-77 17 -116 27 -126 34 -5 3 -19 7 -30 8 -22 4 -248 78 -280 92 -22 10 -55 23
-67 26 -5 2 -10 4 -13 5 -3 1 -9 3 -14 4 -5 0 -13 4 -17 9 -4 4 -15 7 -25 7
-9 0 -19 5 -21 11 -2 5 -10 11 -18 13 -48 7 -349 161 -478 242 -29 19 -57 34
-62 34 -6 0 -10 5 -10 10 0 6 -4 10 -9 10 -24 0 -318 217 -463 341 -114 98
-349 338 -436 444 l-32 40 -188 1 c-103 1 -187 3 -187 4 0 1 -31 3 -70 5 -99
5 -207 15 -227 21 -9 2 -19 1 -22 -4 -8 -13 174 -265 284 -396 174 -207 387
-422 561 -568 24 -20 54 -44 66 -55 12 -10 36 -29 54 -43 18 -14 38 -31 45
-38 7 -6 15 -12 19 -12 5 0 80 -56 122 -90 7 -6 61 -42 120 -80 60 -38 113
-74 120 -80 7 -5 14 -10 16 -10 2 0 53 -29 115 -64 159 -90 359 -188 537 -261
72 -30 398 -145 408 -144 1 0 9 -2 17 -5 26 -8 264 -68 290 -73 14 -2 59 -10
100 -18 127 -25 134 -26 180 -31 25 -3 51 -7 59 -10 7 -2 41 -7 75 -10 33 -3
72 -7 86 -10 164 -26 696 -26 940 2 25 2 63 6 85 9 22 2 40 4 40 5 0 1 17 3
38 6 21 2 77 11 124 20 47 8 97 17 111 19 15 2 27 4 27 5 0 1 12 4 28 6 15 3
71 16 125 30 53 14 105 27 116 29 10 3 44 12 75 21 31 10 61 18 66 20 16 3
228 74 245 81 8 3 17 7 20 7 3 1 16 8 30 16 14 7 26 13 27 12 6 -3 162 60 204
83 14 8 29 12 33 8 3 -3 6 -1 6 5 0 7 5 12 10 12 21 0 260 124 387 201 35 21
72 40 83 44 11 3 20 10 20 14 0 4 19 18 43 31 23 13 44 26 47 29 3 3 32 24 65
46 65 43 199 143 274 203 25 20 51 42 58 47 7 6 28 24 47 40 18 17 62 56 97
87 117 103 300 291 394 403 27 33 52 62 55 65 3 3 17 21 32 42 15 20 33 42 41
50 33 35 287 399 287 413 0 1 18 32 40 66 21 35 50 84 62 109 13 25 25 47 29
50 3 3 11 20 18 38 8 17 18 32 24 32 6 0 8 3 4 6 -3 3 11 38 31 77 20 40 37
74 37 77 1 3 13 30 27 60 15 31 36 80 48 110 11 30 25 64 30 75 41 87 174 499
171 532 0 2 5 17 10 35 14 47 56 245 64 298 2 14 7 45 11 70 4 25 7 51 7 58 0
6 3 12 6 12 3 0 6 16 5 36 -1 20 2 55 6 77 18 95 32 333 31 502 -1 61 -1 121
0 135 1 30 1 22 -5 143 -3 54 -8 119 -10 145 -3 26 -8 74 -11 107 -6 62 -10
85 -20 145 -4 19 -9 49 -11 65 -2 17 -6 41 -8 55 -2 14 -4 25 -5 25 -2 0 -4
16 -6 35 -2 19 -13 73 -24 120 -12 47 -23 94 -26 105 -12 63 -18 88 -41 165
-14 47 -27 92 -29 100 -5 22 -65 200 -78 230 -5 14 -11 30 -13 35 -4 16 -78
192 -115 275 -52 117 -145 294 -220 419 -38 63 -69 118 -69 123 0 4 -4 8 -10
8 -5 0 -10 4 -10 10 0 8 -155 237 -169 250 -4 3 -25 30 -48 61 -23 31 -47 62
-55 70 -8 8 -21 24 -29 37 -17 23 -118 140 -156 180 -13 12 -23 28 -23 34 0 6
-3 9 -6 6 -3 -4 -22 12 -42 35 -71 78 -187 190 -313 298 -122 104 -123 105
-239 192 -58 43 -113 85 -123 93 -9 8 -22 14 -27 14 -6 0 -10 4 -10 9 0 5 -15
16 -34 25 -18 8 -39 22 -46 31 -7 8 -16 15 -20 15 -4 0 -50 26 -101 58 -105
66 -189 112 -317 176 -86 44 -241 116 -246 116 -2 0 -25 10 -52 22 -27 12 -53
23 -59 24 -5 1 -58 21 -117 43 -58 23 -115 42 -125 44 -10 1 -22 5 -28 9 -8 5
-63 22 -107 34 -5 1 -9 2 -10 4 -3 2 -18 5 -56 14 -12 3 -26 7 -30 10 -5 3
-22 7 -38 10 -16 3 -56 13 -89 22 -33 8 -71 18 -85 20 -14 3 -81 16 -150 29
-147 28 -221 38 -360 50 -36 3 -78 8 -95 11 -32 6 -601 15 -607 9z"/>
<path d="M5290 8330 c-30 -3 -70 -6 -88 -6 -17 1 -32 -2 -32 -5 0 -3 -12 -5
-27 -4 -16 1 -32 -1 -38 -4 -5 -3 -22 -6 -37 -7 -16 -1 -29 -2 -30 -4 -4 -2
-27 -7 -75 -14 -53 -8 -103 -18 -173 -35 -25 -7 -52 -13 -61 -15 -76 -19 -308
-95 -389 -129 -14 -6 -27 -11 -30 -12 -23 -7 -111 -47 -185 -84 -49 -24 -92
-45 -95 -45 -3 -1 -9 -4 -15 -8 -5 -3 -27 -15 -47 -27 -21 -12 -53 -30 -72
-40 -64 -36 -211 -134 -268 -177 -31 -24 -59 -44 -63 -44 -4 0 -12 -6 -20 -12
-14 -14 -28 -26 -120 -102 -33 -28 -79 -69 -102 -92 -24 -23 -46 -44 -50 -46
-17 -8 -96 -98 -91 -103 3 -4 19 -8 34 -10 16 -2 63 -11 104 -20 41 -9 86 -19
99 -21 14 -3 29 -7 33 -10 5 -3 23 -8 40 -11 16 -2 64 -15 106 -29 42 -13 80
-24 84 -24 4 0 19 -5 35 -12 15 -6 30 -12 33 -13 48 -12 197 -67 234 -87 10
-5 26 -11 35 -13 9 -2 57 -22 106 -46 50 -24 92 -43 95 -44 3 0 16 -7 29 -14
14 -8 52 -28 85 -45 72 -38 159 -88 166 -96 7 -7 37 -25 80 -49 34 -19 216
-152 300 -221 82 -67 307 -296 358 -365 4 -5 21 -28 38 -50 32 -41 154 -222
154 -229 0 -2 18 -35 39 -75 22 -39 37 -71 34 -71 -3 0 1 -7 8 -16 14 -17 18
-27 73 -176 19 -54 33 -98 29 -98 -3 0 -1 -6 5 -12 5 -7 11 -26 13 -43 2 -16
6 -34 10 -40 4 -5 10 -34 13 -64 4 -29 8 -57 11 -60 23 -39 24 -414 1 -551
-22 -133 -25 -146 -37 -177 -6 -16 -10 -30 -10 -33 2 -13 -60 -190 -87 -250
-8 -19 -14 -37 -13 -39 2 -2 -1 -7 -6 -10 -4 -3 -25 -41 -47 -84 -62 -125
-170 -282 -296 -431 -88 -104 -373 -366 -398 -366 -6 0 -15 -6 -19 -13 -9 -15
-178 -133 -233 -163 -19 -10 -37 -22 -40 -25 -8 -9 -230 -129 -239 -129 -5 0
-14 -7 -21 -15 -7 -9 -15 -14 -17 -11 -2 2 -43 -14 -91 -36 -87 -39 -112 -50
-154 -67 -13 -5 -36 -14 -53 -21 -44 -18 -321 -109 -348 -114 -12 -3 -22 -5
-22 -6 0 -1 -7 -3 -15 -5 -8 -2 -53 -13 -100 -25 -47 -11 -93 -22 -102 -24
-33 -4 -28 -13 33 -67 34 -30 74 -64 88 -77 40 -35 198 -154 271 -203 36 -24
67 -47 68 -51 2 -5 8 -8 13 -8 5 0 26 -11 47 -24 117 -77 403 -218 547 -270
55 -21 107 -40 115 -43 8 -3 20 -7 25 -8 6 -2 49 -15 97 -29 48 -15 95 -29
105 -31 10 -2 45 -11 79 -19 66 -16 100 -23 154 -32 19 -3 42 -7 50 -9 8 -2
38 -7 65 -10 28 -4 61 -8 75 -11 66 -12 196 -18 410 -19 241 0 386 9 500 31
14 3 36 6 50 7 14 1 31 6 38 10 6 5 12 6 12 4 0 -3 48 6 108 19 59 13 114 26
122 27 8 2 35 9 60 16 25 7 47 13 50 14 20 2 255 87 345 124 134 57 366 175
393 200 7 7 18 13 22 13 10 0 242 152 270 177 8 7 28 24 44 38 16 14 32 25 35
25 3 0 22 14 41 31 19 17 62 54 95 82 71 62 265 257 315 317 19 24 40 48 45
54 33 36 149 192 191 256 27 41 51 77 54 80 7 7 29 43 37 60 4 8 21 38 38 65
33 52 178 346 190 385 1 3 6 16 12 30 6 14 18 42 26 63 9 20 13 37 9 37 -3 0
-1 5 6 12 7 7 12 18 12 24 0 7 5 25 12 41 7 15 13 33 14 38 1 6 3 12 4 15 1 3
3 12 5 20 2 8 10 35 18 60 13 39 20 65 33 115 3 12 12 56 20 92 3 15 7 30 9
34 3 4 7 27 10 50 3 24 10 67 15 94 20 107 23 130 35 305 8 106 13 381 7 393
-2 5 -6 36 -8 70 -7 131 -24 264 -49 387 -3 14 -8 39 -11 55 -37 205 -139 510
-243 730 -21 44 -39 85 -41 90 -1 6 -10 21 -20 35 -9 14 -23 40 -31 58 -8 17
-17 32 -21 32 -5 0 -8 5 -8 11 0 6 -13 31 -30 56 -16 24 -30 47 -30 50 0 5
-111 171 -132 198 -5 6 -36 46 -70 90 -34 44 -65 82 -70 83 -4 2 -8 8 -8 12 0
11 -44 59 -201 218 -110 112 -157 154 -271 245 -16 12 -40 32 -55 45 -34 27
-252 176 -273 185 -8 4 -28 16 -45 27 -16 11 -46 28 -65 37 -19 10 -37 20 -40
23 -19 21 -423 202 -480 215 -8 2 -49 15 -90 30 -41 14 -76 26 -77 26 -2 0 -8
1 -15 3 -7 2 -33 9 -58 15 -25 7 -52 13 -60 15 -96 24 -153 35 -161 30 -5 -3
-9 -1 -9 3 0 5 -12 10 -27 11 -16 1 -38 4 -50 6 -11 3 -43 7 -70 11 -26 4 -59
9 -73 12 -84 15 -580 26 -680 13z"/>
<path d="M49 6250 c0 -8 -1 -616 -2 -1351 -1 -884 1 -1336 8 -1337 8 -1 209
-3 255 -2 8 1 45 0 81 -1 36 -2 71 1 77 5 7 4 12 3 12 -3 0 -7 8 -7 23 -2 14
5 30 5 40 0 9 -6 17 -6 18 -2 1 4 2 490 2 1080 1 589 5 1075 9 1078 9 9 829 9
908 1 102 -11 163 -40 234 -110 82 -82 126 -169 154 -306 4 -19 7 -417 7 -883
-1 -487 3 -851 8 -854 13 -8 252 -7 266 1 6 4 16 4 23 0 14 -9 174 -8 188 1 6
3 10 2 10 -4 0 -6 6 -8 13 -5 10 3 12 177 12 862 -1 471 2 862 6 867 3 6 7 17
7 25 2 55 71 227 86 213 3 -4 6 1 6 10 0 23 97 115 149 142 87 43 132 47 576
47 209 0 400 -1 425 -1 l45 -1 -1 -1076 c0 -623 3 -1077 9 -1081 13 -8 432 -7
445 1 7 4 12 3 12 -2 0 -5 11 -7 25 -4 l25 4 -2 1352 -3 1351 -725 -2 c-686
-1 -811 -4 -870 -19 -14 -3 -35 -8 -48 -10 -41 -8 -156 -66 -212 -107 -73 -54
-174 -158 -199 -205 -7 -12 -15 -22 -19 -22 -4 0 -29 28 -57 63 -50 63 -59 72
-130 133 -57 49 -55 47 -117 82 -72 39 -178 71 -260 78 -35 3 -390 6 -790 7
-643 2 -728 0 -729 -13z"/>
</g>
</svg>
